<svg width="117" height="117" viewBox="0 0 117 117" fill="none" xmlns="http://www.w3.org/2000/svg">
<path d="M99.45 11.7H17.55C7.85728 11.7 0 19.5573 0 29.25V87.75C0 97.4427 7.85728 105.3 17.55 105.3H99.45C109.143 105.3 117 97.4427 117 87.75V29.25C117 19.5573 109.143 11.7 99.45 11.7ZM29.25 78.975C29.25 83.8214 25.3214 87.75 20.475 87.75C15.6286 87.75 11.7 83.8214 11.7 78.975V67.275C11.7 65.6589 13.0089 64.35 14.625 64.35H26.325C27.9411 64.35 29.25 65.6589 29.25 67.275V78.975ZM29.25 55.575C29.25 57.1911 27.9411 58.5 26.325 58.5H14.625C13.0089 58.5 11.7 57.1911 11.7 55.575V43.875C11.7 39.0286 15.6286 35.1 20.475 35.1C25.3214 35.1 29.25 39.0286 29.25 43.875V55.575ZM55.575 77.5125C55.575 83.1669 50.9919 87.75 45.3375 87.75C39.6831 87.75 35.1 83.1669 35.1 77.5125V67.275C35.1 65.6589 36.4089 64.35 38.025 64.35H52.65C54.2661 64.35 55.575 65.6589 55.575 67.275V77.5125ZM55.575 55.575C55.575 57.1911 54.2661 58.5 52.65 58.5H38.025C36.4089 58.5 35.1 57.1911 35.1 55.575V39.4875C35.1 33.8331 39.6831 29.25 45.3375 29.25C50.9919 29.25 55.575 33.8331 55.575 39.4875V55.575ZM81.9 77.5125C81.9 83.1669 77.3169 87.75 71.6625 87.75C66.0081 87.75 61.425 83.1669 61.425 77.5125V67.275C61.425 65.6589 62.7339 64.35 64.35 64.35H78.975C80.5911 64.35 81.9 65.6589 81.9 67.275V77.5125ZM81.9 55.575C81.9 57.1911 80.5911 58.5 78.975 58.5H64.35C62.7339 58.5 61.425 57.1911 61.425 55.575V39.4875C61.425 33.8331 66.0081 29.25 71.6625 29.25C77.3169 29.25 81.9 33.8331 81.9 39.4875V55.575ZM105.3 78.975C105.3 83.8214 101.371 87.75 96.525 87.75C91.6786 87.75 87.75 83.8214 87.75 78.975V67.275C87.75 65.6589 89.0589 64.35 90.675 64.35H102.375C103.991 64.35 105.3 65.6589 105.3 67.275V78.975ZM105.3 55.575C105.3 57.1911 103.991 58.5 102.375 58.5H90.675C89.0589 58.5 87.75 57.1911 87.75 55.575V43.875C87.75 39.0286 91.6786 35.1 96.525 35.1C101.371 35.1 105.3 39.0286 105.3 43.875V55.575Z" fill="white"/>
</svg>
